<?xml version="1.0" standalone="no"?>
<!DOCTYPE svg PUBLIC "-//W3C//DTD SVG 20010904//EN"
 "http://www.w3.org/TR/2001/REC-SVG-20010904/DTD/svg10.dtd">
<svg version="1.0" xmlns="http://www.w3.org/2000/svg"
 width="1024.000000pt" height="1024.000000pt" viewBox="0 0 1024.000000 1024.000000"
 preserveAspectRatio="xMidYMid meet">
<metadata>
Created by potrace 1.16, written by Peter Selinger 2001-2019
</metadata>
<g transform="translate(0.000000,1024.000000) scale(0.100000,-0.100000)"
fill="#000000" stroke="none">
<path d="M6966 8335 c-201 -107 -601 -417 -939 -729 l-107 -99 -148 36 c-292
72 -472 92 -767 84 -263 -7 -473 -40 -712 -112 l-81 -25 -164 59 c-372 134
-452 150 -604 116 -177 -38 -440 -164 -662 -314 -202 -138 -236 -166 -270
-221 -32 -52 -33 -59 -29 -130 3 -60 11 -91 41 -155 58 -125 161 -269 280
-392 l108 -113 -36 -142 c-44 -179 -60 -256 -85 -435 -34 -234 -36 -274 -16
-316 25 -53 117 -149 270 -282 l135 -118 0 -333 0 -334 -50 -25 c-66 -33 -117
-86 -148 -153 -21 -47 -24 -64 -20 -136 5 -94 27 -143 95 -208 86 -84 220
-107 331 -58 48 21 142 107 142 131 0 5 114 9 260 9 l260 0 0 -238 0 -238 -58
-26 c-115 -53 -182 -149 -190 -274 -4 -62 -1 -79 23 -132 33 -73 103 -143 172
-173 72 -31 176 -28 253 7 69 31 132 93 163 162 30 68 30 179 -2 250 -32 71
-114 146 -186 168 l-55 18 0 282 c0 250 -2 283 -17 295 -12 11 -77 15 -298 17
l-281 3 -11 66 c-20 115 -105 212 -215 245 l-38 11 0 278 0 279 185 -125 c112
-76 194 -125 209 -125 29 0 56 24 56 50 0 46 -28 75 -170 170 -322 218 -637
492 -677 588 -12 29 -12 51 2 157 24 186 61 397 93 520 l27 110 46 6 c25 4 59
14 75 22 124 65 286 394 380 771 39 162 41 189 14 216 -46 46 -101 7 -120 -84
-19 -93 -107 -358 -161 -484 -56 -133 -135 -268 -172 -295 -23 -18 -26 -18
-60 -2 -20 9 -78 60 -129 113 -191 198 -317 423 -287 512 8 20 39 50 97 93
303 220 650 389 832 404 55 4 84 -1 185 -30 66 -20 185 -61 265 -92 223 -87
190 -83 336 -42 235 66 473 107 620 107 l64 0 0 -832 c0 -458 -3 -849 -6 -869
-6 -36 -7 -37 -63 -44 -153 -18 -249 -64 -287 -137 -8 -15 -14 -50 -14 -78 0
-93 63 -158 266 -280 l104 -62 0 -122 c0 -139 -2 -144 -80 -171 -123 -43 -283
-63 -373 -46 -85 16 -153 54 -233 132 -40 38 -78 69 -86 69 -7 0 -24 -7 -36
-16 -61 -43 6 -162 140 -247 128 -81 355 -95 567 -36 111 30 101 49 101 -195
0 -190 2 -217 17 -232 15 -15 33 -16 163 -11 80 4 190 14 245 22 510 79 962
258 1408 557 49 33 91 57 94 54 3 -2 7 -173 10 -379 l5 -375 -55 -25 c-116
-53 -188 -162 -188 -284 0 -37 5 -83 10 -102 6 -19 10 -35 8 -36 -1 -1 -119
-7 -261 -13 -217 -10 -262 -14 -277 -28 -17 -16 -19 -40 -21 -312 l-3 -294
-54 -20 c-63 -24 -134 -89 -161 -151 -13 -28 -20 -65 -20 -112 0 -220 221
-366 413 -272 117 58 177 151 177 275 0 120 -56 204 -172 257 l-58 26 0 250
c0 206 2 251 14 255 8 3 126 11 263 17 l248 12 65 -33 c61 -32 70 -34 150 -30
100 4 157 27 219 89 65 65 86 119 86 219 0 73 -4 92 -27 135 -14 28 -44 67
-65 87 -36 35 -133 88 -160 88 -10 0 -13 94 -13 434 l0 434 98 85 c160 140
260 241 277 280 21 50 19 110 -9 268 -45 250 -117 500 -208 723 -45 111 -45
96 -9 333 32 214 44 441 38 738 -3 148 -10 313 -17 365 -15 127 -57 331 -81
397 -38 100 -109 128 -203 78z m101 -216 c91 -366 93 -1042 2 -1504 l-22 -111
43 -95 c94 -209 174 -468 215 -704 30 -166 30 -176 8 -223 -23 -49 -170 -192
-322 -314 -295 -238 -650 -436 -993 -557 -212 -74 -639 -161 -792 -161 l-56 0
0 171 0 171 23 -5 c12 -2 64 -16 116 -30 251 -70 432 -33 585 117 77 77 103
126 86 167 -14 34 -41 45 -71 28 -12 -6 -58 -45 -102 -87 -94 -87 -162 -122
-252 -130 -70 -5 -180 16 -282 54 -109 41 -103 32 -103 166 l0 117 33 24 c17
13 72 48 121 78 107 65 178 127 200 173 20 42 21 106 2 151 -29 69 -153 128
-297 141 l-69 7 0 868 0 869 63 0 c160 0 421 -46 625 -111 l124 -39 27 19 c15
11 44 37 63 58 65 71 231 225 347 322 247 205 610 465 641 459 10 -2 22 -33
37 -89z m-3740 -3860 c73 -27 134 -136 118 -212 -14 -65 -54 -117 -108 -143
-29 -13 -59 -24 -67 -24 -65 0 -152 58 -176 117 -30 71 -9 179 42 224 53 46
130 61 191 38z m3818 -207 c54 -38 85 -94 85 -156 0 -175 -197 -267 -327 -153
-45 39 -63 82 -63 147 0 86 57 165 137 190 48 16 124 3 168 -28z m-2937 -723
c118 -57 145 -210 56 -309 -35 -39 -103 -70 -154 -70 -45 0 -125 47 -156 92
-25 35 -29 51 -29 109 0 59 4 73 30 111 58 82 163 110 253 67z"/>
<path d="M6818 7750 c-50 -30 -261 -312 -337 -452 -62 -113 -59 -125 56 -207
50 -36 128 -99 174 -138 88 -78 118 -89 143 -50 14 21 36 221 51 457 7 102
-11 353 -26 382 -11 20 -35 23 -61 8z"/>
<path d="M6335 6416 c-44 -18 -188 -77 -320 -131 -132 -54 -247 -104 -256
-112 -21 -18 -36 -138 -20 -157 6 -7 33 -16 59 -20 29 -4 72 -21 112 -46 90
-55 150 -74 220 -67 149 13 234 115 254 305 l10 104 52 33 c60 38 73 65 50
100 -23 34 -62 32 -161 -9z"/>
<path d="M4047 6336 c-65 -32 -91 -59 -118 -119 -90 -211 125 -417 327 -314
89 45 137 121 137 217 0 179 -185 295 -346 216z"/>
</g>
</svg>
